<?xml version="1.0" encoding="utf-8" standalone="no"?>
<svg xmlns="http://www.w3.org/2000/svg" width="1440" height="500" viewbox="0 0 1440 500">
  <path id="mountain" d="m-1.33333,349.08427l55.28889,-61.84766c55.28889,-60.9211 165.86666,-186.00626 276.44443,-172.80283c110.57778,12.27688 221.15555,160.52595 331.73333,148.24908c110.57777,-13.20343 254.48889,-172.61643 393.06666,-159.43008c138.57777,13.18636 159.82221,48.93819 270.39999,109.85929c110.57778,61.84766 221.15555,61.84766 276.44444,61.84766l55.28889,0l0,222.37361l-55.28889,0c-55.28889,0 -165.86666,0 -276.44444,0c-110.57777,0 -221.15554,0 -331.73332,0c-110.57777,0 -221.15555,0 -331.73333,0c-110.57777,0 -221.15554,0 -331.73333,0c-110.57777,0 -221.15554,0 -276.44443,0l-55.28889,0l0,-148.24908l0,0.00001z" fill="#41b2e2"/>
</svg>