<?xml version="1.0" encoding="utf-8" standalone="no"?>
<svg xmlns="http://www.w3.org/2000/svg" width="1440" height="500" viewBox="0 0 1440 500">
 <g>
   <path d="m0.580419,194.814926c0,-7.792005 -0.447946,-26.117145 -0.995443,-40.722539l-0.995443,-26.555248l9.010638,-2.777111l9.010638,-2.777111l24.165776,5.603043l24.165776,5.603043l14.000201,-2.567111c16.86118,-3.091714 40.894949,-5.538472 54.45644,-5.543938c7.240301,-0.002963 19.416658,1.601864 45.03619,5.935534c23.89536,4.042026 36.576143,5.747403 39.692913,5.338125c2.518969,-0.330774 22.098274,-4.291422 43.50952,-8.801427c56.077205,-11.811946 69.844638,-13.723933 99.232299,-13.78115l23.663072,-0.046075l19.846448,5.589359c26.555496,7.478824 39.69191,10.842285 68.699288,17.58984c38.63464,8.98701 62.346319,13.171901 75.112645,13.256685l10.993325,0.073005l39.494631,-13.042438c43.718597,-14.437332 63.682933,-19.344271 85.937625,-21.122193c13.991624,-1.117787 15.503849,-1.030954 52.572269,3.018659c46.823954,5.115377 76.074536,8.964593 103.048906,13.560651c18.659295,3.179284 23.075013,3.558575 46.658548,4.007775c18.853258,0.359105 32.280223,0.038012 48.607383,-1.162388l22.558541,-1.658555l17.038642,-8.322339c17.864695,-8.725847 32.790604,-14.329361 42.890453,-16.102044c4.282528,-0.751648 16.326809,-0.733484 41.982884,0.063308l35.977494,1.117355l14.07051,-3.65022c26.189461,-6.79415 37.253198,-7.804049 78.291841,-7.146478c19.731945,0.316171 43.712308,1.173231 53.289705,1.904583l17.413382,1.329719l27.622808,-4.255913c87.507384,-13.482501 124.616442,-17.178607 141.694856,-14.112959c9.641357,1.730663 10.349917,3.220369 10.349917,21.760349c0,9.037305 0.790581,29.514979 2.29901,32.787902l-4.817303,-8.871745l-47.635193,-1.449066c-46.225965,0.657073 -61.345238,6.022699 -126.928776,0.177199l-20.73635,-5.473652l-33.069279,2.688456c-16.434578,0.867101 -33.202367,8.91019 -46.555843,7.909124c-21.707734,-1.62736 -63.876031,-2.449997 -70.338054,-1.683646c-3.110267,0.368852 -18.30271,1.263941 -22.081164,2.792163c-3.778454,1.528228 -3.113857,-0.201244 -11.49985,2.979729c-8.385994,3.180973 -39.121725,13.526089 -47.727891,15.332686c-8.606166,1.806597 -1.126689,2.495025 -24.15576,4.289462c-23.029072,1.794436 -52.356388,6.63161 -94.516545,3.770108c-42.160157,-2.861502 -107.447755,2.583991 -156.02628,3.883456c-34.302674,0.917589 -35.294013,1.440619 -79.37395,6.310123c-43.495648,4.80496 -57.601185,9.114552 -61.391702,7.847643c-15.256884,-5.099345 -102.35971,-15.344725 -138.618254,-15.364479c-19.65981,-0.01071 -33.017725,-0.338112 -54.867201,5.430374l-15.934196,0.449001l-29.855005,-0.822178c-43.590736,6.034578 -33.345795,5.699434 -57.34159,7.955414c-16.793159,1.578821 -46.483049,3.023383 -64.115867,4.413409c-28.549425,2.250608 -74.923043,8.401641 -130.542389,14.439392c-35.161089,3.816908 -84.546595,13.003995 -101.977302,18.751508l-0.297945,-4.994398l0,-15.151782z" fill="#55c7a6" stroke="#55c7a6" stroke-width="1" opacity="1" />
   <path d="m1.589006,399.486362c-0.55203,-18.238745 -1.004791,-67.401662 -1.006136,-109.250947l-0.002425,-76.089624c11.441039,-4.283287 56.498238,-13.706367 68.300746,-14.952509c11.802499,-1.246137 79.264991,-10.960772 179.016582,-18.813587c53.354908,-4.200292 87.329906,-11.757299 106.367856,-10.900133c19.037959,0.857166 28.979309,0.899231 41.638552,0.253006c12.659243,-0.646219 25.492712,-10.940015 52.537419,-3.368629c27.044707,7.571387 47.561386,82.651421 71.342078,123.977132c38.943896,-8.905478 74.989376,-19.132881 124.991725,-47.812886c50.002349,-28.680005 70.084551,-9.892989 112.470878,-25.915124c42.386326,-16.022135 17.86035,-8.838172 45.558609,-29.079597l12.069834,-25.455607c68.110999,-7.551629 88.817062,0.412988 94.068198,0.451803c5.251171,0.038815 48.056184,-1.20287 54.725828,-2.082109c19.4982,-2.570395 38.268279,-3.609572 42.949316,-5.763933c2.372096,-1.09172 4.750926,-1.984948 5.286249,-1.984948c2.358473,0 30.525214,-8.777437 38.450127,-12.255824c14.324493,-6.287274 45.334478,-11.143376 85.29055,-8.095593l103.949981,-9.026822c12.797762,2.104393 11.498419,3.04065 19.235675,5.845921l36.055361,1.948902c21.29891,-1.580859 48.853671,-2.471468 77.162368,-2.258167c28.308688,0.213295 59.688102,-4.738739 64.025671,0.45054c4.33757,5.18928 1.859256,4.178345 3.609569,8.418731c1.750313,4.240385 2.372884,3.264406 0.540129,31.561198c-0.661675,10.354386 -1.323351,23.200791 -1.985026,33.555178l-8.67579,-1.94816c-31.471828,-0.946884 -19.922369,0.590237 -32.097398,1.154547c-12.175029,0.564309 -37.250259,1.895972 -55.722745,2.959244c-18.47246,1.063272 -41.421969,-1.942346 -66.706936,-0.587546c-36.041189,1.931126 -62.960056,8.082297 -77.966984,10.386689c-10.528217,1.616661 -28.999092,9.488061 -41.046363,10.892768c-75.887324,8.848399 -107.105753,8.155618 -119.233075,10.595481c-12.127322,2.439863 -30.102013,12.913418 -37.65892,14.275627c-19.042817,3.432667 -62.946844,4.382453 -85.943074,4.390178c-17.935895,0.005931 -72.550073,-4.862653 -88.503615,-2.190728c-5.059153,0.847331 -66.748029,14.215575 -71.112468,14.478217c-57.865346,3.482236 -89.442338,9.64894 -172.100461,25.075116c-132.197751,24.671597 -279.837404,36.249271 -396.516809,71.520248l-182.36139,68.803278l-1.003686,-33.161328z" fill="#55c7a6" stroke="#55c7a6" stroke-width="1" opacity="0.8" />
   <path d="m7.181382,501.271675l-10.071472,-0.341744l0.62718,-7.112115c0.344949,-3.911672 1.479675,-18.089052 2.521608,-31.505288c1.041942,-13.416235 2.230766,-24.195212 2.641843,-30.27561c0.411077,-6.080398 151.805193,-65.422357 230.452883,-82.108619c78.647689,-16.686262 335.871794,-57.75528 416.660773,-70.534987c62.200448,-9.839264 60.071556,-9.236118 99.041061,-11.630904c9.65606,-0.593394 53.965003,-13.573482 74.116773,-15.138558c20.151787,-1.565054 47.708664,1.020963 56.525056,0.670392c20.064839,-0.797861 31.86379,4.308561 59.42239,1.123203c11.755212,-1.358726 44.553938,-1.365543 51.680122,-2.045665c11.689315,-1.115638 35.640359,-13.956339 44.484674,-15.520208c8.844315,-1.563869 17.289659,-1.633645 31.589065,-2.739902c14.299405,-1.106257 57.385184,-10.76825 126.072777,-19.601824c68.687593,-8.833574 41.236462,-9.131775 105.668036,-9.823681c64.431574,-0.691906 118.129169,-5.722001 123.274678,-6.041971l17.066736,5.232951l0.992984,42.741589c0.546178,23.507886 1.383875,45.292086 1.861552,48.40933c0.656072,4.281094 0.365255,5.757227 -1.188584,6.033526c-1.131435,0.201167 -24.727925,3.973712 -52.436628,8.383416c-150.50178,23.951581 -299.877995,59.212634 -522.198592,123.267748c-22.032934,6.348129 -50.512049,16.496282 -57.043183,17.006558c-28.808719,2.250763 -86.775485,11.198267 -138.447364,16.118525c-51.671879,4.920258 -68.470264,12.264076 -114.899935,19.984149c-46.42967,7.720074 -77.250028,14.283292 -85.340158,15.692495l-32.059613,0.485473l-210.471599,-0.19327c-115.759378,-0.106276 -215.003749,-0.347044 -220.543063,-0.535009z" fill="#55c7a6" stroke="#55c7a6" stroke-width="1" opacity="0.6" />
   <path d="m840.663305,507.262665c-15.132784,-0.387381 -76.530102,-4.280416 -94.710791,-4.82195c-18.180689,-0.541534 3.633003,0.064056 -41.139206,-11.948675l11.687859,-3.245101c36.502167,-18.398262 57.669892,-26.078237 88.737232,-36.725845c58.340521,-19.994876 64.851202,-20.022095 194.254256,-54.76596c157.087141,-42.176858 317.237698,-79.679227 442.11304,-94.857519l-0.962756,4.108646l1.641713,74.568723c0.549494,41.012787 1.10849,85.22537 1.242211,98.250153l0.243161,23.681441l-305.200897,0.136441c-27.834302,0.599247 -164.760556,4.677148 -190.174987,4.705102l-33.188898,0.914543l-74.541936,0z" fill="#55c7a6" stroke="#55c7a6" stroke-width="1" opacity="0.4" />
   <path d="m499.602141,496.024238c28.952345,-6.365152 67.920428,-10.919582 84.243938,-14.553294c16.32351,-3.633712 37.532156,-9.044543 52.404275,-11.093691c14.872119,-2.049148 173.657153,-21.858657 174.433829,-21.356665c0.938492,0.606579 -86.281426,33.516131 -91.92348,36.370129c-5.642062,2.853992 -15.208774,3.841408 -10.050849,5.360365c2.082582,0.613297 15.994189,6.403983 27.701651,9.453201c11.707462,3.049217 14.021407,1.020609 15.280891,1.214399c1.25951,0.193796 -62.974313,0.360778 -142.741794,0.371084l-145.031799,0.018751l35.683336,-5.784263l0,-0.000017z" fill="#a0ebff" stroke="#a0ebff" stroke-width="1" opacity="0.8" />
  <path d="m520.587666,295.809529l-72.460705,-131.346544c8.05119,-9.769578 109.496177,3.256525 146.531648,8.684069c37.035472,5.427544 41.866184,-3.256525 82.658878,-7.779478c40.792694,-4.522953 131.502761,-9.588659 137.943713,-3.075608c6.440952,6.513052 0,22.795681 -35.425234,45.591362c-35.425234,22.795681 -161.023788,51.018905 -183.567119,62.9595c-22.543331,11.940595 -6.440953,18.453646 -75.681181,24.966699z" fill="#55c7a6" stroke="#55c7a6" stroke-width="1" opacity="0.6" />
 </g>
</svg>