<?xml version="1.0" encoding="UTF-8" standalone="no"?>
<svg xmlns:svg="http://www.w3.org/2000/svg" xmlns="http://www.w3.org/2000/svg" version="1.1" width="1600" height="150" viewBox="0 0 1600.0005 149.99985">
  <g transform="translate(0,-730.70101)" style="fill:none;stroke:#e1faff">
    <path d="m 175.86489,847.81474 c 0.85169,3.334 35.01519,5.8897 90.10565,7.75765 44.97042,1.52482 103.88547,2.59135 170.00851,3.24887 45.64343,0.45388 94.72137,0.71286 145.01808,0.79315 55.8439,0.0892 113.19024,-0.042 169.0063,-0.3712 58.14488,-0.34296 114.62913,-0.9009 166.02441,-1.64875 113.52026,-1.65183 202.21316,-4.23014 229.13546,-7.46481 -0.8995,0.15797 24.5164,-5.98619 5.0652,-18.51205 -11.5143,-7.41487 -27.2299,-5.9828 -33.2235,-8.18405 0,0 2.166,-11.73119 -14.0792,-17.74995 -16.2453,-6.01873 -45.4867,-2.77787 -45.4867,-2.77787 5.1419,3.26185 -9.2667,-12.77922 -55.2338,-18.51918 -27.10498,-3.38463 -53.06766,0.46296 -53.06766,0.46296 0.99295,0.81517 1.3045,-8.32888 -28.56607,-16.90341 -10.20702,-2.92998 -53.2436,-5.99562 -62.40728,0.69917 -3.77723,2.75954 3.95324,-8.56848 -23.05879,-12.64421 -28.59915,-4.31515 -43.27617,0.60673 -44.0881,0.60673 2.15045,-0.91929 -40.43041,-17.39861 -85.5582,-18.05618 -47.15634,-0.68713 -104.41342,11.4461 -107.2185,16.20428 0,0 -22.53129,-11.48384 -70.39599,-5.55577 -42.08786,5.21264 -41.15454,15.27832 -41.15454,15.27832 0.4631,0.18613 -31.33937,-8.64711 -70.39598,2.7779 -30.35733,8.88023 -23.43291,16.58316 -25.99238,17.13021 2.74892,-0.88134 -49.80469,-4.6036 -69.88946,4.35344 -18.03293,6.87918 -16.4398,8.59053 -24.33287,17.86959 0.0651,0.0279 -27.58446,-6.0183 -51.18156,-0.15679 -17.10348,4.24855 -19.29511,12.22868 -20.29738,12.65714 0.53289,0.37968 -37.25593,2.77771 -48.73565,12.50045 -15.73768,13.32898 0,16.20428 0,16.20428 z"></path>
  </g>
</svg>