<?xml version="1.0" encoding="utf-8"?>
<svg viewBox="0 0 1600 500" xmlns="http://www.w3.org/2000/svg" xmlns:svg="http://www.w3.org/2000/svg">
 <g>
  <path d="m671,374c0,0 -23,-117 7,-162c30,-45 33,-21 33,-21" stroke-linecap="null" stroke-linejoin="null" stroke-dasharray="null" stroke-width="null" stroke="#ffffff" fill="none"/>
  <circle stroke="#ffffff" r="7.40312" cy="367" cx="669.5" stroke-linecap="null" stroke-linejoin="null" stroke-dasharray="null" stroke-width="null" fill="#ffffff"/>
  <path d="m669,370c0,0 -33,-104 -72,-113c-39,-9 -47,4 -47,4" stroke-linecap="null" stroke-linejoin="null" stroke-dasharray="null" stroke-width="null" stroke="#ffffff" fill="none"/>
  <path d="m669,372c0,0 3,-124 23,-151c20,-27 57,-46 57,-46" stroke-linecap="null" stroke-linejoin="null" stroke-dasharray="null" stroke-width="null" stroke="#ffffff" fill="none"/>
  <path d="m671,373c0,0 -23,-50 -57,-46c-34,4 -54,32 -54,32" stroke-linecap="null" stroke-linejoin="null" stroke-dasharray="null" stroke-width="null" stroke="#ffffff" fill="none"/>
  <path d="m671,370c0,0 -26,-22 -52,-8c-26,14 -26,41 -26,41" stroke-linecap="null" stroke-linejoin="null" stroke-dasharray="null" stroke-width="null" stroke="#ffffff" fill="none"/>
  <path d="m671,368c0,0 -40,3 -42,28c-2,25 7,41 7,41" stroke-linecap="null" stroke-linejoin="null" stroke-dasharray="null" stroke-width="null" stroke="#ffffff" fill="none"/>
  <path d="m669,367c0,0 1,-71 42,-104c41,-33 85,-20 85,-20" stroke-linecap="null" stroke-linejoin="null" stroke-dasharray="null" stroke-width="null" stroke="#ffffff" fill="none"/>
  <path d="m667,368c0,0 34,-77 66,-87c32,-10 70,4 70,4" stroke-linecap="null" stroke-linejoin="null" stroke-dasharray="null" stroke-width="null" stroke="#ffffff" fill="none"/>
  <path d="m668,366c0,0 34,-44 61,-37c27,7 38,31 38,31" stroke-linecap="null" stroke-linejoin="null" stroke-dasharray="null" stroke-width="null" stroke="#ffffff" fill="none"/>
  <path d="m669,366c0,0 41,-17 52,-7c11,10 13,26 13,26" stroke-linecap="null" stroke-linejoin="null" stroke-dasharray="null" stroke-width="null" stroke="#ffffff" fill="none"/>
  <path stroke="#ffffff" id="svg_42" d="m670,369c0,0 24,-10 27,2c3,12 6,16 6,16" stroke-linecap="null" stroke-linejoin="null" stroke-dasharray="null" stroke-width="null" fill="none"/>
  <path id="svg_43" d="m668,366c0,0 -17,15 -17,26c0,11 7,25 7,25" stroke-linecap="null" stroke-linejoin="null" stroke-dasharray="null" stroke-width="null" stroke="#ffffff" fill="none"/>
  <path d="m668,365c0,0 -40,-4 -49,9c-9,13 -12,30 -12,30" stroke-linecap="null" stroke-linejoin="null" stroke-dasharray="null" stroke-width="null" stroke="#ffffff" fill="none"/>
  <path d="m669,363c0,0 15,-72 56,-59c41,13 39,20 39,20" stroke-linecap="null" stroke-linejoin="null" stroke-dasharray="null" stroke-width="null" stroke="#ffffff" fill="none"/>
  <path d="m669,367c0,0 -18,-57 -52,-65c-34,-8 -52,7 -52,7" stroke-linecap="null" stroke-linejoin="null" stroke-dasharray="null" stroke-width="null" stroke="#ffffff" fill="none"/>
  <path d="m669,365c0,0 -34,-30 -54,-24c-20,6 -34,29 -34,29" stroke-linecap="null" stroke-linejoin="null" stroke-dasharray="null" stroke-width="null" stroke="#ffffff" fill="none"/>
  <path d="m669,365c0,0 -24,-120 -37,-133c-13,-13 -21,-3 -21,-3" stroke-linecap="null" stroke-linejoin="null" stroke-dasharray="null" stroke-width="null" stroke="#ffffff" fill="none"/>
  <path d="m669,366c0,0 10,-115 36,-130c26,-15 48,-8 48,-8" stroke-linecap="null" stroke-linejoin="null" stroke-dasharray="null" stroke-width="null" stroke="#ffffff" fill="none"/>
  <path d="m670.66667,372.44444c0,0 17.33333,58.66667 17.33333,77.33334c0,18.66666 -2.66667,42.66666 -2.66667,42.22222" stroke-linecap="null" stroke-linejoin="null" stroke-dasharray="null" stroke-width="null" stroke="#ffffff" fill="none"/>
  <path d="m1058.66667,261.33333c0,0 -2.66667,-85.33333 34.66666,-96c37.33334,-10.66666 50.66667,2.66667 49.33334,2.66667" stroke-linecap="null" stroke-linejoin="null" stroke-dasharray="null" stroke-width="null" stroke="#ffffff" fill="none"/>
  <path d="m1057.33333,260c0,0 -9.33333,-90.66667 -40,-93.33333c-30.66666,-2.66667 -41.33333,8 -42.66666,6.66666" stroke-linecap="null" stroke-linejoin="null" stroke-dasharray="null" stroke-width="null" stroke="#ffffff" fill="none"/>
  <path d="m1058.66667,260c0,0 8,-52 33.33333,-54.66667c25.33333,-2.66666 30.66667,6.66667 29.33333,6.66667" stroke-linecap="null" stroke-linejoin="null" stroke-dasharray="null" stroke-width="null" stroke="#ffffff" fill="none"/>
  <path d="m1058.66667,258.66667c0,0 -17.33334,-38.66667 -41.33334,-42.66667c-24,-4 -33.33333,10.66667 -33.33333,12" stroke-linecap="null" stroke-linejoin="null" stroke-dasharray="null" stroke-width="null" stroke="#ffffff" fill="none"/>
  <path d="m1058.66667,261.33333c0,0 13.33333,-37.33333 34.66666,-33.33333c21.33334,4 29.33334,17.33333 28,17.33333" stroke-linecap="null" stroke-linejoin="null" stroke-dasharray="null" stroke-width="null" stroke="#ffffff" fill="none"/>
  <path d="m1058.66667,260c0,0 -20,-25.33333 -37.33334,-24c-17.33333,1.33333 -29.33333,14.66667 -30.66666,13.33333" stroke-linecap="null" stroke-linejoin="null" stroke-dasharray="null" stroke-width="null" stroke="#ffffff" fill="none"/>
  <path d="m1058.66667,260c0,0 9.33333,-17.33333 30.66666,-17.33333c21.33334,0 29.33334,14.66666 28,14.66666" stroke-linecap="null" stroke-linejoin="null" stroke-dasharray="null" stroke-width="null" stroke="#ffffff" fill="none"/>
  <path d="m1058.66667,261.33333c0,0 -34.66667,-13.33333 -45.33334,0c-10.66666,13.33334 -13.33333,29.33334 -14.66666,28" stroke-linecap="null" stroke-linejoin="null" stroke-dasharray="null" stroke-width="null" stroke="#ffffff" fill="none"/>
  <path d="m1060,258.66667c0,0 -38.66667,13.33333 -37.33333,32c1.33333,18.66666 6.66666,32 6.66666,30.66666" stroke-linecap="null" stroke-linejoin="null" stroke-dasharray="null" stroke-width="null" stroke="#ffffff" fill="none"/>
  <path d="m1058.66667,258.66667c0,0 28,-4 37.33333,13.33333c9.33333,17.33333 6.66667,32 5.33333,32" stroke-linecap="null" stroke-linejoin="null" stroke-dasharray="null" stroke-width="null" stroke="#ffffff" fill="none"/>
  <path d="m1056,257.33333c0,0 -21.33333,13.33334 -18.66667,26.66667c2.66667,13.33333 6.66667,18.66667 5.33334,17.33333" stroke-linecap="null" stroke-linejoin="null" stroke-dasharray="null" stroke-width="null" stroke="#ffffff" fill="none"/>
  <path d="m1060,258.66667c0,0 14.66667,1.33333 20,13.33333c5.33333,12 2.66667,16 1.33333,16" stroke-linecap="null" stroke-linejoin="null" stroke-dasharray="null" stroke-width="null" stroke="#ffffff" fill="none"/>
  <path d="m1058.66667,260c0,0 29.33333,44 24,136c-5.33333,92 -6.66667,97.33333 -8,96" stroke-linecap="null" stroke-linejoin="null" stroke-dasharray="null" stroke-width="null" stroke="#ffffff" fill="none"/>
 </g>
</svg>