<?xml version="1.0" encoding="UTF-8" standalone="no"?>
<svg xmlns:svg="http://www.w3.org/2000/svg" xmlns="http://www.w3.org/2000/svg" version="1.1" width="1600" height="150" viewBox="0 0 1600.0005 149.99985">
  <g transform="translate(0,-730.70101)" style="fill:none;stroke:#e1faff">
    <g transform="matrix(1.1255688,0,0,0.84411336,22.171492,17.146866)">
      <path d="m 224.61133,862.90625 -0.93164,0.10937 c -0.10467,7.31302 -4.48213,16.21877 -8.61524,25.17969 -4.13311,8.96093 -8.03276,17.99291 -6.93554,25.80469 l 0.0137,0.0996 0.0527,0.084 c 3.96176,6.3557 8.6461,10.92787 13.95703,11.64844 2.65547,0.36029 5.44173,-0.27188 8.26563,-2.08789 2.8239,-1.81601 5.69769,-4.80517 8.62305,-9.19336 l 0.0644,-0.0977 0.0137,-0.11523 c 1.1018,-10.54472 -1.09647,-17.73731 -4.27734,-25.0957 -3.18088,-7.3584 -7.32849,-14.90057 -10.23047,-26.33594 z m -0.28906,2.31641 c 2.88406,10.33013 6.70302,17.57179 9.65234,24.39453 3.14243,7.26947 5.26038,14.20123 4.20703,24.5039 -2.85003,4.25243 -5.62718,7.12706 -8.27539,8.83008 -2.67165,1.7181 -5.20155,2.27243 -7.62695,1.94336 -4.82394,-0.6545 -9.33777,-4.92819 -13.21485,-11.11523 -0.99867,-7.38505 2.74771,-16.2773 6.85743,-25.1875 3.74701,-8.12385 7.61008,-16.19754 8.40039,-23.36914 z" />
      <path d="m 214.69531,903.90039 c -0.45327,-0.22467 -0.9636,-0.17252 -1.35937,0.0273 -0.79155,0.39973 -1.35017,1.23369 -1.92188,1.92774 l -0.0898,0.10937 -0.0156,0.14258 c -0.47273,4.5044 0.20815,7.36786 1.66407,9.42969 1.45591,2.06183 3.61759,3.274 5.99414,4.64062 l 0.0937,0.0527 0.10742,0.008 c 1.16707,0.0894 2.24379,0.19444 3.10742,-0.33984 0.43181,-0.26715 0.76653,-0.7078 0.94727,-1.28906 0.18073,-0.58127 0.23159,-1.30383 0.16406,-2.23438 l -0.0195,-0.25391 -0.22266,-0.125 c -1.76002,-0.97862 -3.58943,-1.24779 -4.91601,-2.41015 -1.32659,-1.16237 -2.31705,-3.2587 -2.26563,-8.13282 l 0.002,-0.12695 -0.0625,-0.11133 c -0.37458,-0.65966 -0.75375,-1.08978 -1.20703,-1.31445 z m -0.41992,0.8457 c 0.18172,0.0901 0.4616,0.37505 0.76563,0.88868 -0.0159,4.84243 1.00968,7.2998 2.56445,8.66211 1.4999,1.31422 3.30272,1.64527 4.82031,2.41601 0.0248,0.67677 0.004,1.26235 -0.10547,1.61523 -0.12804,0.41178 -0.30264,0.62011 -0.54101,0.76758 -0.45953,0.28429 -1.3528,0.27257 -2.44922,0.19336 -2.32718,-1.33847 -4.30763,-2.48656 -5.58594,-4.29687 -1.28314,-1.81715 -1.91804,-4.37914 -1.49414,-8.64649 0.55636,-0.67658 1.1161,-1.37443 1.51172,-1.57422 0.21183,-0.10697 0.3225,-0.12014 0.51367,-0.0254 z" />
    </g>
    <g transform="matrix(1.1255688,0,0,0.84411336,139.23073,15.458607)">
      <path d="m 224.61133,862.90625 -0.93164,0.10937 c -0.10467,7.31302 -4.48213,16.21877 -8.61524,25.17969 -4.13311,8.96093 -8.03276,17.99291 -6.93554,25.80469 l 0.0137,0.0996 0.0527,0.084 c 3.96176,6.3557 8.6461,10.92787 13.95703,11.64844 2.65547,0.36029 5.44173,-0.27188 8.26563,-2.08789 2.8239,-1.81601 5.69769,-4.80517 8.62305,-9.19336 l 0.0644,-0.0977 0.0137,-0.11523 c 1.1018,-10.54472 -1.09647,-17.73731 -4.27734,-25.0957 -3.18088,-7.3584 -7.32849,-14.90057 -10.23047,-26.33594 z m -0.28906,2.31641 c 2.88406,10.33013 6.70302,17.57179 9.65234,24.39453 3.14243,7.26947 5.26038,14.20123 4.20703,24.5039 -2.85003,4.25243 -5.62718,7.12706 -8.27539,8.83008 -2.67165,1.7181 -5.20155,2.27243 -7.62695,1.94336 -4.82394,-0.6545 -9.33777,-4.92819 -13.21485,-11.11523 -0.99867,-7.38505 2.74771,-16.2773 6.85743,-25.1875 3.74701,-8.12385 7.61008,-16.19754 8.40039,-23.36914 z" />
      <path d="m 214.69531,903.90039 c -0.45327,-0.22467 -0.9636,-0.17252 -1.35937,0.0273 -0.79155,0.39973 -1.35017,1.23369 -1.92188,1.92774 l -0.0898,0.10937 -0.0156,0.14258 c -0.47273,4.5044 0.20815,7.36786 1.66407,9.42969 1.45591,2.06183 3.61759,3.274 5.99414,4.64062 l 0.0937,0.0527 0.10742,0.008 c 1.16707,0.0894 2.24379,0.19444 3.10742,-0.33984 0.43181,-0.26715 0.76653,-0.7078 0.94727,-1.28906 0.18073,-0.58127 0.23159,-1.30383 0.16406,-2.23438 l -0.0195,-0.25391 -0.22266,-0.125 c -1.76002,-0.97862 -3.58943,-1.24779 -4.91601,-2.41015 -1.32659,-1.16237 -2.31705,-3.2587 -2.26563,-8.13282 l 0.002,-0.12695 -0.0625,-0.11133 c -0.37458,-0.65966 -0.75375,-1.08978 -1.20703,-1.31445 z m -0.41992,0.8457 c 0.18172,0.0901 0.4616,0.37505 0.76563,0.88868 -0.0159,4.84243 1.00968,7.2998 2.56445,8.66211 1.4999,1.31422 3.30272,1.64527 4.82031,2.41601 0.0248,0.67677 0.004,1.26235 -0.10547,1.61523 -0.12804,0.41178 -0.30264,0.62011 -0.54101,0.76758 -0.45953,0.28429 -1.3528,0.27257 -2.44922,0.19336 -2.32718,-1.33847 -4.30763,-2.48656 -5.58594,-4.29687 -1.28314,-1.81715 -1.91804,-4.37914 -1.49414,-8.64649 0.55636,-0.67658 1.1161,-1.37443 1.51172,-1.57422 0.21183,-0.10697 0.3225,-0.12014 0.51367,-0.0254 z" />
    </g>
    <g transform="matrix(1.1255688,0,0,0.84411336,236.02969,29.80853)">
      <path d="m 224.61133,862.90625 -0.93164,0.10937 c -0.10467,7.31302 -4.48213,16.21877 -8.61524,25.17969 -4.13311,8.96093 -8.03276,17.99291 -6.93554,25.80469 l 0.0137,0.0996 0.0527,0.084 c 3.96176,6.3557 8.6461,10.92787 13.95703,11.64844 2.65547,0.36029 5.44173,-0.27188 8.26563,-2.08789 2.8239,-1.81601 5.69769,-4.80517 8.62305,-9.19336 l 0.0644,-0.0977 0.0137,-0.11523 c 1.1018,-10.54472 -1.09647,-17.73731 -4.27734,-25.0957 -3.18088,-7.3584 -7.32849,-14.90057 -10.23047,-26.33594 z m -0.28906,2.31641 c 2.88406,10.33013 6.70302,17.57179 9.65234,24.39453 3.14243,7.26947 5.26038,14.20123 4.20703,24.5039 -2.85003,4.25243 -5.62718,7.12706 -8.27539,8.83008 -2.67165,1.7181 -5.20155,2.27243 -7.62695,1.94336 -4.82394,-0.6545 -9.33777,-4.92819 -13.21485,-11.11523 -0.99867,-7.38505 2.74771,-16.2773 6.85743,-25.1875 3.74701,-8.12385 7.61008,-16.19754 8.40039,-23.36914 z" />
      <path d="m 214.69531,903.90039 c -0.45327,-0.22467 -0.9636,-0.17252 -1.35937,0.0273 -0.79155,0.39973 -1.35017,1.23369 -1.92188,1.92774 l -0.0898,0.10937 -0.0156,0.14258 c -0.47273,4.5044 0.20815,7.36786 1.66407,9.42969 1.45591,2.06183 3.61759,3.274 5.99414,4.64062 l 0.0937,0.0527 0.10742,0.008 c 1.16707,0.0894 2.24379,0.19444 3.10742,-0.33984 0.43181,-0.26715 0.76653,-0.7078 0.94727,-1.28906 0.18073,-0.58127 0.23159,-1.30383 0.16406,-2.23438 l -0.0195,-0.25391 -0.22266,-0.125 c -1.76002,-0.97862 -3.58943,-1.24779 -4.91601,-2.41015 -1.32659,-1.16237 -2.31705,-3.2587 -2.26563,-8.13282 l 0.002,-0.12695 -0.0625,-0.11133 c -0.37458,-0.65966 -0.75375,-1.08978 -1.20703,-1.31445 z m -0.41992,0.8457 c 0.18172,0.0901 0.4616,0.37505 0.76563,0.88868 -0.0159,4.84243 1.00968,7.2998 2.56445,8.66211 1.4999,1.31422 3.30272,1.64527 4.82031,2.41601 0.0248,0.67677 0.004,1.26235 -0.10547,1.61523 -0.12804,0.41178 -0.30264,0.62011 -0.54101,0.76758 -0.45953,0.28429 -1.3528,0.27257 -2.44922,0.19336 -2.32718,-1.33847 -4.30763,-2.48656 -5.58594,-4.29687 -1.28314,-1.81715 -1.91804,-4.37914 -1.49414,-8.64649 0.55636,-0.67658 1.1161,-1.37443 1.51172,-1.57422 0.21183,-0.10697 0.3225,-0.12014 0.51367,-0.0254 z" />
    </g>
    <g transform="matrix(0.59882733,0,0,0.55986063,423.02988,318.43995)">
      <path d="m 224.61133,862.90625 -0.93164,0.10937 c -0.10467,7.31302 -4.48213,16.21877 -8.61524,25.17969 -4.13311,8.96093 -8.03276,17.99291 -6.93554,25.80469 l 0.0137,0.0996 0.0527,0.084 c 3.96176,6.3557 8.6461,10.92787 13.95703,11.64844 2.65547,0.36029 5.44173,-0.27188 8.26563,-2.08789 2.8239,-1.81601 5.69769,-4.80517 8.62305,-9.19336 l 0.0644,-0.0977 0.0137,-0.11523 c 1.1018,-10.54472 -1.09647,-17.73731 -4.27734,-25.0957 -3.18088,-7.3584 -7.32849,-14.90057 -10.23047,-26.33594 z m -0.28906,2.31641 c 2.88406,10.33013 6.70302,17.57179 9.65234,24.39453 3.14243,7.26947 5.26038,14.20123 4.20703,24.5039 -2.85003,4.25243 -5.62718,7.12706 -8.27539,8.83008 -2.67165,1.7181 -5.20155,2.27243 -7.62695,1.94336 -4.82394,-0.6545 -9.33777,-4.92819 -13.21485,-11.11523 -0.99867,-7.38505 2.74771,-16.2773 6.85743,-25.1875 3.74701,-8.12385 7.61008,-16.19754 8.40039,-23.36914 z" />
      <path d="m 214.69531,903.90039 c -0.45327,-0.22467 -0.9636,-0.17252 -1.35937,0.0273 -0.79155,0.39973 -1.35017,1.23369 -1.92188,1.92774 l -0.0898,0.10937 -0.0156,0.14258 c -0.47273,4.5044 0.20815,7.36786 1.66407,9.42969 1.45591,2.06183 3.61759,3.274 5.99414,4.64062 l 0.0937,0.0527 0.10742,0.008 c 1.16707,0.0894 2.24379,0.19444 3.10742,-0.33984 0.43181,-0.26715 0.76653,-0.7078 0.94727,-1.28906 0.18073,-0.58127 0.23159,-1.30383 0.16406,-2.23438 l -0.0195,-0.25391 -0.22266,-0.125 c -1.76002,-0.97862 -3.58943,-1.24779 -4.91601,-2.41015 -1.32659,-1.16237 -2.31705,-3.2587 -2.26563,-8.13282 l 0.002,-0.12695 -0.0625,-0.11133 c -0.37458,-0.65966 -0.75375,-1.08978 -1.20703,-1.31445 z m -0.41992,0.8457 c 0.18172,0.0901 0.4616,0.37505 0.76563,0.88868 -0.0159,4.84243 1.00968,7.2998 2.56445,8.66211 1.4999,1.31422 3.30272,1.64527 4.82031,2.41601 0.0248,0.67677 0.004,1.26235 -0.10547,1.61523 -0.12804,0.41178 -0.30264,0.62011 -0.54101,0.76758 -0.45953,0.28429 -1.3528,0.27257 -2.44922,0.19336 -2.32718,-1.33847 -4.30763,-2.48656 -5.58594,-4.29687 -1.28314,-1.81715 -1.91804,-4.37914 -1.49414,-8.64649 0.55636,-0.67658 1.1161,-1.37443 1.51172,-1.57422 0.21183,-0.10697 0.3225,-0.12014 0.51367,-0.0254 z" />
    </g>
    <g transform="matrix(1.1255688,0,0,0.84411336,350.83775,16.30273)">
      <path d="m 224.61133,862.90625 -0.93164,0.10937 c -0.10467,7.31302 -4.48213,16.21877 -8.61524,25.17969 -4.13311,8.96093 -8.03276,17.99291 -6.93554,25.80469 l 0.0137,0.0996 0.0527,0.084 c 3.96176,6.3557 8.6461,10.92787 13.95703,11.64844 2.65547,0.36029 5.44173,-0.27188 8.26563,-2.08789 2.8239,-1.81601 5.69769,-4.80517 8.62305,-9.19336 l 0.0644,-0.0977 0.0137,-0.11523 c 1.1018,-10.54472 -1.09647,-17.73731 -4.27734,-25.0957 -3.18088,-7.3584 -7.32849,-14.90057 -10.23047,-26.33594 z m -0.28906,2.31641 c 2.88406,10.33013 6.70302,17.57179 9.65234,24.39453 3.14243,7.26947 5.26038,14.20123 4.20703,24.5039 -2.85003,4.25243 -5.62718,7.12706 -8.27539,8.83008 -2.67165,1.7181 -5.20155,2.27243 -7.62695,1.94336 -4.82394,-0.6545 -9.33777,-4.92819 -13.21485,-11.11523 -0.99867,-7.38505 2.74771,-16.2773 6.85743,-25.1875 3.74701,-8.12385 7.61008,-16.19754 8.40039,-23.36914 z" />
      <path d="m 214.69531,903.90039 c -0.45327,-0.22467 -0.9636,-0.17252 -1.35937,0.0273 -0.79155,0.39973 -1.35017,1.23369 -1.92188,1.92774 l -0.0898,0.10937 -0.0156,0.14258 c -0.47273,4.5044 0.20815,7.36786 1.66407,9.42969 1.45591,2.06183 3.61759,3.274 5.99414,4.64062 l 0.0937,0.0527 0.10742,0.008 c 1.16707,0.0894 2.24379,0.19444 3.10742,-0.33984 0.43181,-0.26715 0.76653,-0.7078 0.94727,-1.28906 0.18073,-0.58127 0.23159,-1.30383 0.16406,-2.23438 l -0.0195,-0.25391 -0.22266,-0.125 c -1.76002,-0.97862 -3.58943,-1.24779 -4.91601,-2.41015 -1.32659,-1.16237 -2.31705,-3.2587 -2.26563,-8.13282 l 0.002,-0.12695 -0.0625,-0.11133 c -0.37458,-0.65966 -0.75375,-1.08978 -1.20703,-1.31445 z m -0.41992,0.8457 c 0.18172,0.0901 0.4616,0.37505 0.76563,0.88868 -0.0159,4.84243 1.00968,7.2998 2.56445,8.66211 1.4999,1.31422 3.30272,1.64527 4.82031,2.41601 0.0248,0.67677 0.004,1.26235 -0.10547,1.61523 -0.12804,0.41178 -0.30264,0.62011 -0.54101,0.76758 -0.45953,0.28429 -1.3528,0.27257 -2.44922,0.19336 -2.32718,-1.33847 -4.30763,-2.48656 -5.58594,-4.29687 -1.28314,-1.81715 -1.91804,-4.37914 -1.49414,-8.64649 0.55636,-0.67658 1.1161,-1.37443 1.51172,-1.57422 0.21183,-0.10697 0.3225,-0.12014 0.51367,-0.0254 z" />
    </g>
    <g transform="matrix(1.1255688,0,0,0.84411336,451.01342,19.679211)">
      <path d="m 224.61133,862.90625 -0.93164,0.10937 c -0.10467,7.31302 -4.48213,16.21877 -8.61524,25.17969 -4.13311,8.96093 -8.03276,17.99291 -6.93554,25.80469 l 0.0137,0.0996 0.0527,0.084 c 3.96176,6.3557 8.6461,10.92787 13.95703,11.64844 2.65547,0.36029 5.44173,-0.27188 8.26563,-2.08789 2.8239,-1.81601 5.69769,-4.80517 8.62305,-9.19336 l 0.0644,-0.0977 0.0137,-0.11523 c 1.1018,-10.54472 -1.09647,-17.73731 -4.27734,-25.0957 -3.18088,-7.3584 -7.32849,-14.90057 -10.23047,-26.33594 z m -0.28906,2.31641 c 2.88406,10.33013 6.70302,17.57179 9.65234,24.39453 3.14243,7.26947 5.26038,14.20123 4.20703,24.5039 -2.85003,4.25243 -5.62718,7.12706 -8.27539,8.83008 -2.67165,1.7181 -5.20155,2.27243 -7.62695,1.94336 -4.82394,-0.6545 -9.33777,-4.92819 -13.21485,-11.11523 -0.99867,-7.38505 2.74771,-16.2773 6.85743,-25.1875 3.74701,-8.12385 7.61008,-16.19754 8.40039,-23.36914 z" />
      <path d="m 214.69531,903.90039 c -0.45327,-0.22467 -0.9636,-0.17252 -1.35937,0.0273 -0.79155,0.39973 -1.35017,1.23369 -1.92188,1.92774 l -0.0898,0.10937 -0.0156,0.14258 c -0.47273,4.5044 0.20815,7.36786 1.66407,9.42969 1.45591,2.06183 3.61759,3.274 5.99414,4.64062 l 0.0937,0.0527 0.10742,0.008 c 1.16707,0.0894 2.24379,0.19444 3.10742,-0.33984 0.43181,-0.26715 0.76653,-0.7078 0.94727,-1.28906 0.18073,-0.58127 0.23159,-1.30383 0.16406,-2.23438 l -0.0195,-0.25391 -0.22266,-0.125 c -1.76002,-0.97862 -3.58943,-1.24779 -4.91601,-2.41015 -1.32659,-1.16237 -2.31705,-3.2587 -2.26563,-8.13282 l 0.002,-0.12695 -0.0625,-0.11133 c -0.37458,-0.65966 -0.75375,-1.08978 -1.20703,-1.31445 z m -0.41992,0.8457 c 0.18172,0.0901 0.4616,0.37505 0.76563,0.88868 -0.0159,4.84243 1.00968,7.2998 2.56445,8.66211 1.4999,1.31422 3.30272,1.64527 4.82031,2.41601 0.0248,0.67677 0.004,1.26235 -0.10547,1.61523 -0.12804,0.41178 -0.30264,0.62011 -0.54101,0.76758 -0.45953,0.28429 -1.3528,0.27257 -2.44922,0.19336 -2.32718,-1.33847 -4.30763,-2.48656 -5.58594,-4.29687 -1.28314,-1.81715 -1.91804,-4.37914 -1.49414,-8.64649 0.55636,-0.67658 1.1161,-1.37443 1.51172,-1.57422 0.21183,-0.10697 0.3225,-0.12014 0.51367,-0.0254 z" />
    </g>
    <g transform="matrix(1.1255688,0,0,0.84411336,536.55668,28.120357)">
      <path d="m 224.61133,862.90625 -0.93164,0.10937 c -0.10467,7.31302 -4.48213,16.21877 -8.61524,25.17969 -4.13311,8.96093 -8.03276,17.99291 -6.93554,25.80469 l 0.0137,0.0996 0.0527,0.084 c 3.96176,6.3557 8.6461,10.92787 13.95703,11.64844 2.65547,0.36029 5.44173,-0.27188 8.26563,-2.08789 2.8239,-1.81601 5.69769,-4.80517 8.62305,-9.19336 l 0.0644,-0.0977 0.0137,-0.11523 c 1.1018,-10.54472 -1.09647,-17.73731 -4.27734,-25.0957 -3.18088,-7.3584 -7.32849,-14.90057 -10.23047,-26.33594 z m -0.28906,2.31641 c 2.88406,10.33013 6.70302,17.57179 9.65234,24.39453 3.14243,7.26947 5.26038,14.20123 4.20703,24.5039 -2.85003,4.25243 -5.62718,7.12706 -8.27539,8.83008 -2.67165,1.7181 -5.20155,2.27243 -7.62695,1.94336 -4.82394,-0.6545 -9.33777,-4.92819 -13.21485,-11.11523 -0.99867,-7.38505 2.74771,-16.2773 6.85743,-25.1875 3.74701,-8.12385 7.61008,-16.19754 8.40039,-23.36914 z" />
      <path d="m 214.69531,903.90039 c -0.45327,-0.22467 -0.9636,-0.17252 -1.35937,0.0273 -0.79155,0.39973 -1.35017,1.23369 -1.92188,1.92774 l -0.0898,0.10937 -0.0156,0.14258 c -0.47273,4.5044 0.20815,7.36786 1.66407,9.42969 1.45591,2.06183 3.61759,3.274 5.99414,4.64062 l 0.0937,0.0527 0.10742,0.008 c 1.16707,0.0894 2.24379,0.19444 3.10742,-0.33984 0.43181,-0.26715 0.76653,-0.7078 0.94727,-1.28906 0.18073,-0.58127 0.23159,-1.30383 0.16406,-2.23438 l -0.0195,-0.25391 -0.22266,-0.125 c -1.76002,-0.97862 -3.58943,-1.24779 -4.91601,-2.41015 -1.32659,-1.16237 -2.31705,-3.2587 -2.26563,-8.13282 l 0.002,-0.12695 -0.0625,-0.11133 c -0.37458,-0.65966 -0.75375,-1.08978 -1.20703,-1.31445 z m -0.41992,0.8457 c 0.18172,0.0901 0.4616,0.37505 0.76563,0.88868 -0.0159,4.84243 1.00968,7.2998 2.56445,8.66211 1.4999,1.31422 3.30272,1.64527 4.82031,2.41601 0.0248,0.67677 0.004,1.26235 -0.10547,1.61523 -0.12804,0.41178 -0.30264,0.62011 -0.54101,0.76758 -0.45953,0.28429 -1.3528,0.27257 -2.44922,0.19336 -2.32718,-1.33847 -4.30763,-2.48656 -5.58594,-4.29687 -1.28314,-1.81715 -1.91804,-4.37914 -1.49414,-8.64649 0.55636,-0.67658 1.1161,-1.37443 1.51172,-1.57422 0.21183,-0.10697 0.3225,-0.12014 0.51367,-0.0254 z" />
    </g>
    <g transform="matrix(1.1255688,0,0,0.84411336,631.10451,11.238051)">
      <path d="m 224.61133,862.90625 -0.93164,0.10937 c -0.10467,7.31302 -4.48213,16.21877 -8.61524,25.17969 -4.13311,8.96093 -8.03276,17.99291 -6.93554,25.80469 l 0.0137,0.0996 0.0527,0.084 c 3.96176,6.3557 8.6461,10.92787 13.95703,11.64844 2.65547,0.36029 5.44173,-0.27188 8.26563,-2.08789 2.8239,-1.81601 5.69769,-4.80517 8.62305,-9.19336 l 0.0644,-0.0977 0.0137,-0.11523 c 1.1018,-10.54472 -1.09647,-17.73731 -4.27734,-25.0957 -3.18088,-7.3584 -7.32849,-14.90057 -10.23047,-26.33594 z m -0.28906,2.31641 c 2.88406,10.33013 6.70302,17.57179 9.65234,24.39453 3.14243,7.26947 5.26038,14.20123 4.20703,24.5039 -2.85003,4.25243 -5.62718,7.12706 -8.27539,8.83008 -2.67165,1.7181 -5.20155,2.27243 -7.62695,1.94336 -4.82394,-0.6545 -9.33777,-4.92819 -13.21485,-11.11523 -0.99867,-7.38505 2.74771,-16.2773 6.85743,-25.1875 3.74701,-8.12385 7.61008,-16.19754 8.40039,-23.36914 z" />
      <path d="m 214.69531,903.90039 c -0.45327,-0.22467 -0.9636,-0.17252 -1.35937,0.0273 -0.79155,0.39973 -1.35017,1.23369 -1.92188,1.92774 l -0.0898,0.10937 -0.0156,0.14258 c -0.47273,4.5044 0.20815,7.36786 1.66407,9.42969 1.45591,2.06183 3.61759,3.274 5.99414,4.64062 l 0.0937,0.0527 0.10742,0.008 c 1.16707,0.0894 2.24379,0.19444 3.10742,-0.33984 0.43181,-0.26715 0.76653,-0.7078 0.94727,-1.28906 0.18073,-0.58127 0.23159,-1.30383 0.16406,-2.23438 l -0.0195,-0.25391 -0.22266,-0.125 c -1.76002,-0.97862 -3.58943,-1.24779 -4.91601,-2.41015 -1.32659,-1.16237 -2.31705,-3.2587 -2.26563,-8.13282 l 0.002,-0.12695 -0.0625,-0.11133 c -0.37458,-0.65966 -0.75375,-1.08978 -1.20703,-1.31445 z m -0.41992,0.8457 c 0.18172,0.0901 0.4616,0.37505 0.76563,0.88868 -0.0159,4.84243 1.00968,7.2998 2.56445,8.66211 1.4999,1.31422 3.30272,1.64527 4.82031,2.41601 0.0248,0.67677 0.004,1.26235 -0.10547,1.61523 -0.12804,0.41178 -0.30264,0.62011 -0.54101,0.76758 -0.45953,0.28429 -1.3528,0.27257 -2.44922,0.19336 -2.32718,-1.33847 -4.30763,-2.48656 -5.58594,-4.29687 -1.28314,-1.81715 -1.91804,-4.37914 -1.49414,-8.64649 0.55636,-0.67658 1.1161,-1.37443 1.51172,-1.57422 0.21183,-0.10697 0.3225,-0.12014 0.51367,-0.0254 z" />
    </g>
    <g transform="matrix(1.1255688,0,0,0.84411336,724.5268,15.458607)">
      <path d="m 224.61133,862.90625 -0.93164,0.10937 c -0.10467,7.31302 -4.48213,16.21877 -8.61524,25.17969 -4.13311,8.96093 -8.03276,17.99291 -6.93554,25.80469 l 0.0137,0.0996 0.0527,0.084 c 3.96176,6.3557 8.6461,10.92787 13.95703,11.64844 2.65547,0.36029 5.44173,-0.27188 8.26563,-2.08789 2.8239,-1.81601 5.69769,-4.80517 8.62305,-9.19336 l 0.0644,-0.0977 0.0137,-0.11523 c 1.1018,-10.54472 -1.09647,-17.73731 -4.27734,-25.0957 -3.18088,-7.3584 -7.32849,-14.90057 -10.23047,-26.33594 z m -0.28906,2.31641 c 2.88406,10.33013 6.70302,17.57179 9.65234,24.39453 3.14243,7.26947 5.26038,14.20123 4.20703,24.5039 -2.85003,4.25243 -5.62718,7.12706 -8.27539,8.83008 -2.67165,1.7181 -5.20155,2.27243 -7.62695,1.94336 -4.82394,-0.6545 -9.33777,-4.92819 -13.21485,-11.11523 -0.99867,-7.38505 2.74771,-16.2773 6.85743,-25.1875 3.74701,-8.12385 7.61008,-16.19754 8.40039,-23.36914 z" />
      <path d="m 214.69531,903.90039 c -0.45327,-0.22467 -0.9636,-0.17252 -1.35937,0.0273 -0.79155,0.39973 -1.35017,1.23369 -1.92188,1.92774 l -0.0898,0.10937 -0.0156,0.14258 c -0.47273,4.5044 0.20815,7.36786 1.66407,9.42969 1.45591,2.06183 3.61759,3.274 5.99414,4.64062 l 0.0937,0.0527 0.10742,0.008 c 1.16707,0.0894 2.24379,0.19444 3.10742,-0.33984 0.43181,-0.26715 0.76653,-0.7078 0.94727,-1.28906 0.18073,-0.58127 0.23159,-1.30383 0.16406,-2.23438 l -0.0195,-0.25391 -0.22266,-0.125 c -1.76002,-0.97862 -3.58943,-1.24779 -4.91601,-2.41015 -1.32659,-1.16237 -2.31705,-3.2587 -2.26563,-8.13282 l 0.002,-0.12695 -0.0625,-0.11133 c -0.37458,-0.65966 -0.75375,-1.08978 -1.20703,-1.31445 z m -0.41992,0.8457 c 0.18172,0.0901 0.4616,0.37505 0.76563,0.88868 -0.0159,4.84243 1.00968,7.2998 2.56445,8.66211 1.4999,1.31422 3.30272,1.64527 4.82031,2.41601 0.0248,0.67677 0.004,1.26235 -0.10547,1.61523 -0.12804,0.41178 -0.30264,0.62011 -0.54101,0.76758 -0.45953,0.28429 -1.3528,0.27257 -2.44922,0.19336 -2.32718,-1.33847 -4.30763,-2.48656 -5.58594,-4.29687 -1.28314,-1.81715 -1.91804,-4.37914 -1.49414,-8.64649 0.55636,-0.67658 1.1161,-1.37443 1.51172,-1.57422 0.21183,-0.10697 0.3225,-0.12014 0.51367,-0.0254 z" />
    </g>
    <g transform="matrix(0.59882733,0,0,0.55986063,475.83121,348.66369)">
      <path d="m 224.61133,862.90625 -0.93164,0.10937 c -0.10467,7.31302 -4.48213,16.21877 -8.61524,25.17969 -4.13311,8.96093 -8.03276,17.99291 -6.93554,25.80469 l 0.0137,0.0996 0.0527,0.084 c 3.96176,6.3557 8.6461,10.92787 13.95703,11.64844 2.65547,0.36029 5.44173,-0.27188 8.26563,-2.08789 2.8239,-1.81601 5.69769,-4.80517 8.62305,-9.19336 l 0.0644,-0.0977 0.0137,-0.11523 c 1.1018,-10.54472 -1.09647,-17.73731 -4.27734,-25.0957 -3.18088,-7.3584 -7.32849,-14.90057 -10.23047,-26.33594 z m -0.28906,2.31641 c 2.88406,10.33013 6.70302,17.57179 9.65234,24.39453 3.14243,7.26947 5.26038,14.20123 4.20703,24.5039 -2.85003,4.25243 -5.62718,7.12706 -8.27539,8.83008 -2.67165,1.7181 -5.20155,2.27243 -7.62695,1.94336 -4.82394,-0.6545 -9.33777,-4.92819 -13.21485,-11.11523 -0.99867,-7.38505 2.74771,-16.2773 6.85743,-25.1875 3.74701,-8.12385 7.61008,-16.19754 8.40039,-23.36914 z" />
      <path d="m 214.69531,903.90039 c -0.45327,-0.22467 -0.9636,-0.17252 -1.35937,0.0273 -0.79155,0.39973 -1.35017,1.23369 -1.92188,1.92774 l -0.0898,0.10937 -0.0156,0.14258 c -0.47273,4.5044 0.20815,7.36786 1.66407,9.42969 1.45591,2.06183 3.61759,3.274 5.99414,4.64062 l 0.0937,0.0527 0.10742,0.008 c 1.16707,0.0894 2.24379,0.19444 3.10742,-0.33984 0.43181,-0.26715 0.76653,-0.7078 0.94727,-1.28906 0.18073,-0.58127 0.23159,-1.30383 0.16406,-2.23438 l -0.0195,-0.25391 -0.22266,-0.125 c -1.76002,-0.97862 -3.58943,-1.24779 -4.91601,-2.41015 -1.32659,-1.16237 -2.31705,-3.2587 -2.26563,-8.13282 l 0.002,-0.12695 -0.0625,-0.11133 c -0.37458,-0.65966 -0.75375,-1.08978 -1.20703,-1.31445 z m -0.41992,0.8457 c 0.18172,0.0901 0.4616,0.37505 0.76563,0.88868 -0.0159,4.84243 1.00968,7.2998 2.56445,8.66211 1.4999,1.31422 3.30272,1.64527 4.82031,2.41601 0.0248,0.67677 0.004,1.26235 -0.10547,1.61523 -0.12804,0.41178 -0.30264,0.62011 -0.54101,0.76758 -0.45953,0.28429 -1.3528,0.27257 -2.44922,0.19336 -2.32718,-1.33847 -4.30763,-2.48656 -5.58594,-4.29687 -1.28314,-1.81715 -1.91804,-4.37914 -1.49414,-8.64649 0.55636,-0.67658 1.1161,-1.37443 1.51172,-1.57422 0.21183,-0.10697 0.3225,-0.12014 0.51367,-0.0254 z" />
    </g>
    <g transform="matrix(0.59882733,0,0,0.55986063,223.67798,341.61148)">
      <path d="m 224.61133,862.90625 -0.93164,0.10937 c -0.10467,7.31302 -4.48213,16.21877 -8.61524,25.17969 -4.13311,8.96093 -8.03276,17.99291 -6.93554,25.80469 l 0.0137,0.0996 0.0527,0.084 c 3.96176,6.3557 8.6461,10.92787 13.95703,11.64844 2.65547,0.36029 5.44173,-0.27188 8.26563,-2.08789 2.8239,-1.81601 5.69769,-4.80517 8.62305,-9.19336 l 0.0644,-0.0977 0.0137,-0.11523 c 1.1018,-10.54472 -1.09647,-17.73731 -4.27734,-25.0957 -3.18088,-7.3584 -7.32849,-14.90057 -10.23047,-26.33594 z m -0.28906,2.31641 c 2.88406,10.33013 6.70302,17.57179 9.65234,24.39453 3.14243,7.26947 5.26038,14.20123 4.20703,24.5039 -2.85003,4.25243 -5.62718,7.12706 -8.27539,8.83008 -2.67165,1.7181 -5.20155,2.27243 -7.62695,1.94336 -4.82394,-0.6545 -9.33777,-4.92819 -13.21485,-11.11523 -0.99867,-7.38505 2.74771,-16.2773 6.85743,-25.1875 3.74701,-8.12385 7.61008,-16.19754 8.40039,-23.36914 z" />
      <path d="m 214.69531,903.90039 c -0.45327,-0.22467 -0.9636,-0.17252 -1.35937,0.0273 -0.79155,0.39973 -1.35017,1.23369 -1.92188,1.92774 l -0.0898,0.10937 -0.0156,0.14258 c -0.47273,4.5044 0.20815,7.36786 1.66407,9.42969 1.45591,2.06183 3.61759,3.274 5.99414,4.64062 l 0.0937,0.0527 0.10742,0.008 c 1.16707,0.0894 2.24379,0.19444 3.10742,-0.33984 0.43181,-0.26715 0.76653,-0.7078 0.94727,-1.28906 0.18073,-0.58127 0.23159,-1.30383 0.16406,-2.23438 l -0.0195,-0.25391 -0.22266,-0.125 c -1.76002,-0.97862 -3.58943,-1.24779 -4.91601,-2.41015 -1.32659,-1.16237 -2.31705,-3.2587 -2.26563,-8.13282 l 0.002,-0.12695 -0.0625,-0.11133 c -0.37458,-0.65966 -0.75375,-1.08978 -1.20703,-1.31445 z m -0.41992,0.8457 c 0.18172,0.0901 0.4616,0.37505 0.76563,0.88868 -0.0159,4.84243 1.00968,7.2998 2.56445,8.66211 1.4999,1.31422 3.30272,1.64527 4.82031,2.41601 0.0248,0.67677 0.004,1.26235 -0.10547,1.61523 -0.12804,0.41178 -0.30264,0.62011 -0.54101,0.76758 -0.45953,0.28429 -1.3528,0.27257 -2.44922,0.19336 -2.32718,-1.33847 -4.30763,-2.48656 -5.58594,-4.29687 -1.28314,-1.81715 -1.91804,-4.37914 -1.49414,-8.64649 0.55636,-0.67658 1.1161,-1.37443 1.51172,-1.57422 0.21183,-0.10697 0.3225,-0.12014 0.51367,-0.0254 z" />
    </g>
    <g transform="matrix(0.59882733,0,0,0.55986063,695.65709,340.604)">
      <path d="m 224.61133,862.90625 -0.93164,0.10937 c -0.10467,7.31302 -4.48213,16.21877 -8.61524,25.17969 -4.13311,8.96093 -8.03276,17.99291 -6.93554,25.80469 l 0.0137,0.0996 0.0527,0.084 c 3.96176,6.3557 8.6461,10.92787 13.95703,11.64844 2.65547,0.36029 5.44173,-0.27188 8.26563,-2.08789 2.8239,-1.81601 5.69769,-4.80517 8.62305,-9.19336 l 0.0644,-0.0977 0.0137,-0.11523 c 1.1018,-10.54472 -1.09647,-17.73731 -4.27734,-25.0957 -3.18088,-7.3584 -7.32849,-14.90057 -10.23047,-26.33594 z m -0.28906,2.31641 c 2.88406,10.33013 6.70302,17.57179 9.65234,24.39453 3.14243,7.26947 5.26038,14.20123 4.20703,24.5039 -2.85003,4.25243 -5.62718,7.12706 -8.27539,8.83008 -2.67165,1.7181 -5.20155,2.27243 -7.62695,1.94336 -4.82394,-0.6545 -9.33777,-4.92819 -13.21485,-11.11523 -0.99867,-7.38505 2.74771,-16.2773 6.85743,-25.1875 3.74701,-8.12385 7.61008,-16.19754 8.40039,-23.36914 z" />
      <path d="m 214.69531,903.90039 c -0.45327,-0.22467 -0.9636,-0.17252 -1.35937,0.0273 -0.79155,0.39973 -1.35017,1.23369 -1.92188,1.92774 l -0.0898,0.10937 -0.0156,0.14258 c -0.47273,4.5044 0.20815,7.36786 1.66407,9.42969 1.45591,2.06183 3.61759,3.274 5.99414,4.64062 l 0.0937,0.0527 0.10742,0.008 c 1.16707,0.0894 2.24379,0.19444 3.10742,-0.33984 0.43181,-0.26715 0.76653,-0.7078 0.94727,-1.28906 0.18073,-0.58127 0.23159,-1.30383 0.16406,-2.23438 l -0.0195,-0.25391 -0.22266,-0.125 c -1.76002,-0.97862 -3.58943,-1.24779 -4.91601,-2.41015 -1.32659,-1.16237 -2.31705,-3.2587 -2.26563,-8.13282 l 0.002,-0.12695 -0.0625,-0.11133 c -0.37458,-0.65966 -0.75375,-1.08978 -1.20703,-1.31445 z m -0.41992,0.8457 c 0.18172,0.0901 0.4616,0.37505 0.76563,0.88868 -0.0159,4.84243 1.00968,7.2998 2.56445,8.66211 1.4999,1.31422 3.30272,1.64527 4.82031,2.41601 0.0248,0.67677 0.004,1.26235 -0.10547,1.61523 -0.12804,0.41178 -0.30264,0.62011 -0.54101,0.76758 -0.45953,0.28429 -1.3528,0.27257 -2.44922,0.19336 -2.32718,-1.33847 -4.30763,-2.48656 -5.58594,-4.29687 -1.28314,-1.81715 -1.91804,-4.37914 -1.49414,-8.64649 0.55636,-0.67658 1.1161,-1.37443 1.51172,-1.57422 0.21183,-0.10697 0.3225,-0.12014 0.51367,-0.0254 z" />
    </g>
    <g transform="matrix(0.59882733,0,0,0.55986063,780.78574,300.30571)">
      <path d="m 224.61133,862.90625 -0.93164,0.10937 c -0.10467,7.31302 -4.48213,16.21877 -8.61524,25.17969 -4.13311,8.96093 -8.03276,17.99291 -6.93554,25.80469 l 0.0137,0.0996 0.0527,0.084 c 3.96176,6.3557 8.6461,10.92787 13.95703,11.64844 2.65547,0.36029 5.44173,-0.27188 8.26563,-2.08789 2.8239,-1.81601 5.69769,-4.80517 8.62305,-9.19336 l 0.0644,-0.0977 0.0137,-0.11523 c 1.1018,-10.54472 -1.09647,-17.73731 -4.27734,-25.0957 -3.18088,-7.3584 -7.32849,-14.90057 -10.23047,-26.33594 z m -0.28906,2.31641 c 2.88406,10.33013 6.70302,17.57179 9.65234,24.39453 3.14243,7.26947 5.26038,14.20123 4.20703,24.5039 -2.85003,4.25243 -5.62718,7.12706 -8.27539,8.83008 -2.67165,1.7181 -5.20155,2.27243 -7.62695,1.94336 -4.82394,-0.6545 -9.33777,-4.92819 -13.21485,-11.11523 -0.99867,-7.38505 2.74771,-16.2773 6.85743,-25.1875 3.74701,-8.12385 7.61008,-16.19754 8.40039,-23.36914 z" />
      <path d="m 214.69531,903.90039 c -0.45327,-0.22467 -0.9636,-0.17252 -1.35937,0.0273 -0.79155,0.39973 -1.35017,1.23369 -1.92188,1.92774 l -0.0898,0.10937 -0.0156,0.14258 c -0.47273,4.5044 0.20815,7.36786 1.66407,9.42969 1.45591,2.06183 3.61759,3.274 5.99414,4.64062 l 0.0937,0.0527 0.10742,0.008 c 1.16707,0.0894 2.24379,0.19444 3.10742,-0.33984 0.43181,-0.26715 0.76653,-0.7078 0.94727,-1.28906 0.18073,-0.58127 0.23159,-1.30383 0.16406,-2.23438 l -0.0195,-0.25391 -0.22266,-0.125 c -1.76002,-0.97862 -3.58943,-1.24779 -4.91601,-2.41015 -1.32659,-1.16237 -2.31705,-3.2587 -2.26563,-8.13282 l 0.002,-0.12695 -0.0625,-0.11133 c -0.37458,-0.65966 -0.75375,-1.08978 -1.20703,-1.31445 z m -0.41992,0.8457 c 0.18172,0.0901 0.4616,0.37505 0.76563,0.88868 -0.0159,4.84243 1.00968,7.2998 2.56445,8.66211 1.4999,1.31422 3.30272,1.64527 4.82031,2.41601 0.0248,0.67677 0.004,1.26235 -0.10547,1.61523 -0.12804,0.41178 -0.30264,0.62011 -0.54101,0.76758 -0.45953,0.28429 -1.3528,0.27257 -2.44922,0.19336 -2.32718,-1.33847 -4.30763,-2.48656 -5.58594,-4.29687 -1.28314,-1.81715 -1.91804,-4.37914 -1.49414,-8.64649 0.55636,-0.67658 1.1161,-1.37443 1.51172,-1.57422 0.21183,-0.10697 0.3225,-0.12014 0.51367,-0.0254 z" />
    </g>
    <g transform="matrix(1.1255688,0,0,0.84411336,817.94895,31.496777)">
      <path d="m 224.61133,862.90625 -0.93164,0.10937 c -0.10467,7.31302 -4.48213,16.21877 -8.61524,25.17969 -4.13311,8.96093 -8.03276,17.99291 -6.93554,25.80469 l 0.0137,0.0996 0.0527,0.084 c 3.96176,6.3557 8.6461,10.92787 13.95703,11.64844 2.65547,0.36029 5.44173,-0.27188 8.26563,-2.08789 2.8239,-1.81601 5.69769,-4.80517 8.62305,-9.19336 l 0.0644,-0.0977 0.0137,-0.11523 c 1.1018,-10.54472 -1.09647,-17.73731 -4.27734,-25.0957 -3.18088,-7.3584 -7.32849,-14.90057 -10.23047,-26.33594 z m -0.28906,2.31641 c 2.88406,10.33013 6.70302,17.57179 9.65234,24.39453 3.14243,7.26947 5.26038,14.20123 4.20703,24.5039 -2.85003,4.25243 -5.62718,7.12706 -8.27539,8.83008 -2.67165,1.7181 -5.20155,2.27243 -7.62695,1.94336 -4.82394,-0.6545 -9.33777,-4.92819 -13.21485,-11.11523 -0.99867,-7.38505 2.74771,-16.2773 6.85743,-25.1875 3.74701,-8.12385 7.61008,-16.19754 8.40039,-23.36914 z" />
      <path d="m 214.69531,903.90039 c -0.45327,-0.22467 -0.9636,-0.17252 -1.35937,0.0273 -0.79155,0.39973 -1.35017,1.23369 -1.92188,1.92774 l -0.0898,0.10937 -0.0156,0.14258 c -0.47273,4.5044 0.20815,7.36786 1.66407,9.42969 1.45591,2.06183 3.61759,3.274 5.99414,4.64062 l 0.0937,0.0527 0.10742,0.008 c 1.16707,0.0894 2.24379,0.19444 3.10742,-0.33984 0.43181,-0.26715 0.76653,-0.7078 0.94727,-1.28906 0.18073,-0.58127 0.23159,-1.30383 0.16406,-2.23438 l -0.0195,-0.25391 -0.22266,-0.125 c -1.76002,-0.97862 -3.58943,-1.24779 -4.91601,-2.41015 -1.32659,-1.16237 -2.31705,-3.2587 -2.26563,-8.13282 l 0.002,-0.12695 -0.0625,-0.11133 c -0.37458,-0.65966 -0.75375,-1.08978 -1.20703,-1.31445 z m -0.41992,0.8457 c 0.18172,0.0901 0.4616,0.37505 0.76563,0.88868 -0.0159,4.84243 1.00968,7.2998 2.56445,8.66211 1.4999,1.31422 3.30272,1.64527 4.82031,2.41601 0.0248,0.67677 0.004,1.26235 -0.10547,1.61523 -0.12804,0.41178 -0.30264,0.62011 -0.54101,0.76758 -0.45953,0.28429 -1.3528,0.27257 -2.44922,0.19336 -2.32718,-1.33847 -4.30763,-2.48656 -5.58594,-4.29687 -1.28314,-1.81715 -1.91804,-4.37914 -1.49414,-8.64649 0.55636,-0.67658 1.1161,-1.37443 1.51172,-1.57422 0.21183,-0.10697 0.3225,-0.12014 0.51367,-0.0254 z" />
    </g>
    <g transform="matrix(0.59882733,0,0,0.55986063,101.91164,311.38774)">
      <path d="m 224.61133,862.90625 -0.93164,0.10937 c -0.10467,7.31302 -4.48213,16.21877 -8.61524,25.17969 -4.13311,8.96093 -8.03276,17.99291 -6.93554,25.80469 l 0.0137,0.0996 0.0527,0.084 c 3.96176,6.3557 8.6461,10.92787 13.95703,11.64844 2.65547,0.36029 5.44173,-0.27188 8.26563,-2.08789 2.8239,-1.81601 5.69769,-4.80517 8.62305,-9.19336 l 0.0644,-0.0977 0.0137,-0.11523 c 1.1018,-10.54472 -1.09647,-17.73731 -4.27734,-25.0957 -3.18088,-7.3584 -7.32849,-14.90057 -10.23047,-26.33594 z m -0.28906,2.31641 c 2.88406,10.33013 6.70302,17.57179 9.65234,24.39453 3.14243,7.26947 5.26038,14.20123 4.20703,24.5039 -2.85003,4.25243 -5.62718,7.12706 -8.27539,8.83008 -2.67165,1.7181 -5.20155,2.27243 -7.62695,1.94336 -4.82394,-0.6545 -9.33777,-4.92819 -13.21485,-11.11523 -0.99867,-7.38505 2.74771,-16.2773 6.85743,-25.1875 3.74701,-8.12385 7.61008,-16.19754 8.40039,-23.36914 z" />
      <path d="m 214.69531,903.90039 c -0.45327,-0.22467 -0.9636,-0.17252 -1.35937,0.0273 -0.79155,0.39973 -1.35017,1.23369 -1.92188,1.92774 l -0.0898,0.10937 -0.0156,0.14258 c -0.47273,4.5044 0.20815,7.36786 1.66407,9.42969 1.45591,2.06183 3.61759,3.274 5.99414,4.64062 l 0.0937,0.0527 0.10742,0.008 c 1.16707,0.0894 2.24379,0.19444 3.10742,-0.33984 0.43181,-0.26715 0.76653,-0.7078 0.94727,-1.28906 0.18073,-0.58127 0.23159,-1.30383 0.16406,-2.23438 l -0.0195,-0.25391 -0.22266,-0.125 c -1.76002,-0.97862 -3.58943,-1.24779 -4.91601,-2.41015 -1.32659,-1.16237 -2.31705,-3.2587 -2.26563,-8.13282 l 0.002,-0.12695 -0.0625,-0.11133 c -0.37458,-0.65966 -0.75375,-1.08978 -1.20703,-1.31445 z m -0.41992,0.8457 c 0.18172,0.0901 0.4616,0.37505 0.76563,0.88868 -0.0159,4.84243 1.00968,7.2998 2.56445,8.66211 1.4999,1.31422 3.30272,1.64527 4.82031,2.41601 0.0248,0.67677 0.004,1.26235 -0.10547,1.61523 -0.12804,0.41178 -0.30264,0.62011 -0.54101,0.76758 -0.45953,0.28429 -1.3528,0.27257 -2.44922,0.19336 -2.32718,-1.33847 -4.30763,-2.48656 -5.58594,-4.29687 -1.28314,-1.81715 -1.91804,-4.37914 -1.49414,-8.64649 0.55636,-0.67658 1.1161,-1.37443 1.51172,-1.57422 0.21183,-0.10697 0.3225,-0.12014 0.51367,-0.0254 z" />
    </g>
    <g transform="matrix(0.59882733,0,0,0.55986063,863.75928,321.46233)">
      <path d="m 224.61133,862.90625 -0.93164,0.10937 c -0.10467,7.31302 -4.48213,16.21877 -8.61524,25.17969 -4.13311,8.96093 -8.03276,17.99291 -6.93554,25.80469 l 0.0137,0.0996 0.0527,0.084 c 3.96176,6.3557 8.6461,10.92787 13.95703,11.64844 2.65547,0.36029 5.44173,-0.27188 8.26563,-2.08789 2.8239,-1.81601 5.69769,-4.80517 8.62305,-9.19336 l 0.0644,-0.0977 0.0137,-0.11523 c 1.1018,-10.54472 -1.09647,-17.73731 -4.27734,-25.0957 -3.18088,-7.3584 -7.32849,-14.90057 -10.23047,-26.33594 z m -0.28906,2.31641 c 2.88406,10.33013 6.70302,17.57179 9.65234,24.39453 3.14243,7.26947 5.26038,14.20123 4.20703,24.5039 -2.85003,4.25243 -5.62718,7.12706 -8.27539,8.83008 -2.67165,1.7181 -5.20155,2.27243 -7.62695,1.94336 -4.82394,-0.6545 -9.33777,-4.92819 -13.21485,-11.11523 -0.99867,-7.38505 2.74771,-16.2773 6.85743,-25.1875 3.74701,-8.12385 7.61008,-16.19754 8.40039,-23.36914 z" />
      <path d="m 214.69531,903.90039 c -0.45327,-0.22467 -0.9636,-0.17252 -1.35937,0.0273 -0.79155,0.39973 -1.35017,1.23369 -1.92188,1.92774 l -0.0898,0.10937 -0.0156,0.14258 c -0.47273,4.5044 0.20815,7.36786 1.66407,9.42969 1.45591,2.06183 3.61759,3.274 5.99414,4.64062 l 0.0937,0.0527 0.10742,0.008 c 1.16707,0.0894 2.24379,0.19444 3.10742,-0.33984 0.43181,-0.26715 0.76653,-0.7078 0.94727,-1.28906 0.18073,-0.58127 0.23159,-1.30383 0.16406,-2.23438 l -0.0195,-0.25391 -0.22266,-0.125 c -1.76002,-0.97862 -3.58943,-1.24779 -4.91601,-2.41015 -1.32659,-1.16237 -2.31705,-3.2587 -2.26563,-8.13282 l 0.002,-0.12695 -0.0625,-0.11133 c -0.37458,-0.65966 -0.75375,-1.08978 -1.20703,-1.31445 z m -0.41992,0.8457 c 0.18172,0.0901 0.4616,0.37505 0.76563,0.88868 -0.0159,4.84243 1.00968,7.2998 2.56445,8.66211 1.4999,1.31422 3.30272,1.64527 4.82031,2.41601 0.0248,0.67677 0.004,1.26235 -0.10547,1.61523 -0.12804,0.41178 -0.30264,0.62011 -0.54101,0.76758 -0.45953,0.28429 -1.3528,0.27257 -2.44922,0.19336 -2.32718,-1.33847 -4.30763,-2.48656 -5.58594,-4.29687 -1.28314,-1.81715 -1.91804,-4.37914 -1.49414,-8.64649 0.55636,-0.67658 1.1161,-1.37443 1.51172,-1.57422 0.21183,-0.10697 0.3225,-0.12014 0.51367,-0.0254 z" />
    </g>
  </g>
</svg>